<svg width="32" height="26" viewBox="0 0 32 26" fill="none" xmlns="http://www.w3.org/2000/svg">
<g clip-path="url(#clip0_945_2605)">
<path d="M10.813 17.334C16.4234 17.334 20.9693 13.4863 20.9693 8.74023C20.9693 3.99414 16.4234 0.146484 10.813 0.146484C5.20268 0.146484 0.656784 3.99414 0.656784 8.74023C0.656784 10.625 1.37456 12.3682 2.59038 13.7891C2.41948 14.248 2.16557 14.6533 1.89702 14.9951C1.66264 15.2979 1.42339 15.5322 1.2476 15.6934C1.15971 15.7715 1.08647 15.835 1.03764 15.874C1.01323 15.8936 0.993698 15.9082 0.983933 15.9131L0.974167 15.9229C0.705613 16.123 0.588425 16.4746 0.695847 16.792C0.803269 17.1094 1.10112 17.334 1.43803 17.334C2.50249 17.334 3.57671 17.0605 4.47026 16.7236C4.91948 16.5527 5.3394 16.3623 5.70561 16.167C7.20464 16.9092 8.9478 17.334 10.813 17.334ZM22.5318 8.74023C22.5318 14.2236 17.6929 18.3545 11.9605 18.8477C13.147 22.4805 17.0826 25.1465 21.7505 25.1465C23.6158 25.1465 25.3589 24.7217 26.8628 23.9795C27.229 24.1748 27.6441 24.3652 28.0933 24.5361C28.9869 24.873 30.0611 25.1465 31.1255 25.1465C31.4624 25.1465 31.7652 24.9268 31.8677 24.6045C31.9703 24.2822 31.858 23.9307 31.5845 23.7305L31.5748 23.7207C31.565 23.7109 31.5455 23.7012 31.521 23.6816C31.4722 23.6426 31.399 23.584 31.3111 23.501C31.1353 23.3398 30.896 23.1055 30.6617 22.8027C30.3931 22.4609 30.1392 22.0508 29.9683 21.5967C31.1841 20.1807 31.9019 18.4375 31.9019 16.5479C31.9019 12.0166 27.7564 8.30078 22.4976 7.97852C22.5171 8.22754 22.5269 8.48145 22.5269 8.73535L22.5318 8.74023Z" fill="#067A6F"/>
</g>
<defs>
<clipPath id="clip0_945_2605">
<rect width="31.25" height="25" fill="white" transform="translate(0.65625 0.146484)"/>
</clipPath>
</defs>
</svg>
