<svg width="72" height="72" viewBox="0 0 72 72" fill="none" xmlns="http://www.w3.org/2000/svg">
<path d="M0.5 36C0.5 16.3939 16.3939 0.5 36 0.5C55.6061 0.5 71.5 16.3939 71.5 36C71.5 55.6061 55.6061 71.5 36 71.5C16.3939 71.5 0.5 55.6061 0.5 36Z" fill="white" fill-opacity="0.06"/>
<path d="M0.5 36C0.5 16.3939 16.3939 0.5 36 0.5C55.6061 0.5 71.5 16.3939 71.5 36C71.5 55.6061 55.6061 71.5 36 71.5C16.3939 71.5 0.5 55.6061 0.5 36Z" stroke="#488182"/>
<path d="M47 28V34H41" stroke="#067A6F" stroke-width="2" stroke-linecap="round" stroke-linejoin="round"/>
<path d="M25 44V38H31" stroke="#067A6F" stroke-width="2" stroke-linecap="round" stroke-linejoin="round"/>
<path d="M27.51 32.9996C28.0172 31.5664 28.8791 30.285 30.0155 29.275C31.1518 28.265 32.5255 27.5594 34.0083 27.2238C35.4911 26.8883 37.0348 26.9339 38.4952 27.3564C39.9556 27.7788 41.2853 28.5643 42.36 29.6396L47 33.9996M25 37.9996L29.64 42.3596C30.7147 43.4349 32.0444 44.2204 33.5048 44.6428C34.9652 45.0652 36.5089 45.1108 37.9917 44.7753C39.4745 44.4398 40.8482 43.7342 41.9845 42.7242C43.1209 41.7142 43.9828 40.4328 44.49 38.9996" stroke="#067A6F" stroke-width="2" stroke-linecap="round" stroke-linejoin="round"/>
</svg>
