<svg width="45" height="44" viewBox="0 0 45 44" fill="none" xmlns="http://www.w3.org/2000/svg">
<rect width="45" height="44" rx="12" fill="#70CACB"/>
<path d="M30.334 16.667V20.667H26.334" stroke="white" stroke-width="1.33333" stroke-linecap="round" stroke-linejoin="round"/>
<path d="M15.666 27.333V23.333H19.666" stroke="white" stroke-width="1.33333" stroke-linecap="round" stroke-linejoin="round"/>
<path d="M17.3393 20.0004C17.6775 19.0449 18.2521 18.1906 19.0097 17.5173C19.7672 16.844 20.683 16.3736 21.6715 16.1499C22.6601 15.9262 23.6892 15.9566 24.6628 16.2382C25.6364 16.5198 26.5229 17.0435 27.2393 17.7604L30.3327 20.667M15.666 23.3337L18.7593 26.2404C19.4758 26.9572 20.3623 27.4809 21.3359 27.7625C22.3095 28.0441 23.3386 28.0745 24.3272 27.8509C25.3157 27.6272 26.2315 27.1568 26.989 26.4834C27.7466 25.8101 28.3212 24.9559 28.6593 24.0004" stroke="white" stroke-width="1.33333" stroke-linecap="round" stroke-linejoin="round"/>
</svg>
