<svg width="32" height="32" viewBox="0 0 32 32" fill="none" xmlns="http://www.w3.org/2000/svg">
<g clip-path="url(#clip0_1198_93)">
<path d="M27.3479 4.26219C27.8214 4.59032 28.0698 5.1575 27.9808 5.72469L24.9808 25.2247C24.9104 25.6794 24.6339 26.0778 24.2308 26.3028C23.8276 26.5278 23.3448 26.5559 22.9183 26.3778L17.312 24.0481L14.1011 27.5216C13.6839 27.9763 13.0276 28.1263 12.4511 27.9013C11.8745 27.6763 11.4995 27.1184 11.4995 26.4997V22.5809C11.4995 22.3934 11.5698 22.2153 11.6964 22.0794L19.5526 13.5059C19.8245 13.2106 19.8151 12.7559 19.5339 12.4747C19.2526 12.1934 18.7979 12.1747 18.5026 12.4419L8.96826 20.9122L4.8292 18.8403C4.33232 18.5919 4.01357 18.095 3.99951 17.5419C3.98545 16.9888 4.27607 16.4731 4.7542 16.1966L25.7542 4.19657C26.2558 3.91063 26.8745 3.93875 27.3479 4.26219Z" fill="#067A6F"/>
</g>
<defs>
<clipPath id="clip0_1198_93">
<rect width="24" height="24" fill="white" transform="translate(4 4)"/>
</clipPath>
</defs>
</svg>
