<svg width="25" height="25" viewBox="0 0 25 25" fill="none" xmlns="http://www.w3.org/2000/svg">
<g clip-path="url(#clip0_945_2618)">
<path d="M1.78125 2.14648C1.15781 2.14648 0.65625 2.64805 0.65625 3.27148V22.0215C0.65625 22.6449 1.15781 23.1465 1.78125 23.1465H2.53125C3.15469 23.1465 3.65625 22.6449 3.65625 22.0215V3.27148C3.65625 2.64805 3.15469 2.14648 2.53125 2.14648H1.78125ZM5.90625 2.14648C5.49375 2.14648 5.15625 2.48398 5.15625 2.89648V22.3965C5.15625 22.809 5.49375 23.1465 5.90625 23.1465C6.31875 23.1465 6.65625 22.809 6.65625 22.3965V2.89648C6.65625 2.48398 6.31875 2.14648 5.90625 2.14648ZM9.28125 2.14648C8.65781 2.14648 8.15625 2.64805 8.15625 3.27148V22.0215C8.15625 22.6449 8.65781 23.1465 9.28125 23.1465H10.0312C10.6547 23.1465 11.1562 22.6449 11.1562 22.0215V3.27148C11.1562 2.64805 10.6547 2.14648 10.0312 2.14648H9.28125ZM13.7812 2.14648C13.1578 2.14648 12.6562 2.64805 12.6562 3.27148V22.0215C12.6562 22.6449 13.1578 23.1465 13.7812 23.1465H14.5312C15.1547 23.1465 15.6562 22.6449 15.6562 22.0215V3.27148C15.6562 2.64805 15.1547 2.14648 14.5312 2.14648H13.7812ZM21.6562 3.27148V22.0215C21.6562 22.6449 22.1578 23.1465 22.7812 23.1465H23.5312C24.1547 23.1465 24.6562 22.6449 24.6562 22.0215V3.27148C24.6562 2.64805 24.1547 2.14648 23.5312 2.14648H22.7812C22.1578 2.14648 21.6562 2.64805 21.6562 3.27148ZM18.6562 2.89648V22.3965C18.6562 22.809 18.9937 23.1465 19.4062 23.1465C19.8188 23.1465 20.1562 22.809 20.1562 22.3965V2.89648C20.1562 2.48398 19.8188 2.14648 19.4062 2.14648C18.9937 2.14648 18.6562 2.48398 18.6562 2.89648Z" fill="#067A6F"/>
</g>
<defs>
<clipPath id="clip0_945_2618">
<rect width="24" height="24" fill="white" transform="translate(0.65625 0.646484)"/>
</clipPath>
</defs>
</svg>
