<svg width="25" height="25" viewBox="0 0 25 25" fill="none" xmlns="http://www.w3.org/2000/svg">
<g clip-path="url(#clip0_945_2631)">
<path d="M12.6562 2.89648C7.27031 2.89648 2.90625 7.26055 2.90625 12.6465V14.5215C2.90625 15.1449 2.40469 15.6465 1.78125 15.6465C1.15781 15.6465 0.65625 15.1449 0.65625 14.5215V12.6465C0.65625 6.01836 6.02813 0.646484 12.6562 0.646484C19.2844 0.646484 24.6562 6.01836 24.6562 12.6465V19.4012C24.6562 21.6793 22.8094 23.5262 20.5266 23.5262L15.3563 23.5215C14.9672 24.1918 14.2406 24.6465 13.4062 24.6465H11.9062C10.6641 24.6465 9.65625 23.6387 9.65625 22.3965C9.65625 21.1543 10.6641 20.1465 11.9062 20.1465H13.4062C14.2406 20.1465 14.9672 20.6012 15.3563 21.2715L20.5312 21.2762C21.5672 21.2762 22.4062 20.4371 22.4062 19.4012V12.6465C22.4062 7.26055 18.0422 2.89648 12.6562 2.89648ZM7.40625 10.3965H8.15625C8.98594 10.3965 9.65625 11.0668 9.65625 11.8965V17.1465C9.65625 17.9762 8.98594 18.6465 8.15625 18.6465H7.40625C5.75156 18.6465 4.40625 17.3012 4.40625 15.6465V13.3965C4.40625 11.7418 5.75156 10.3965 7.40625 10.3965ZM17.9062 10.3965C19.5609 10.3965 20.9062 11.7418 20.9062 13.3965V15.6465C20.9062 17.3012 19.5609 18.6465 17.9062 18.6465H17.1562C16.3266 18.6465 15.6562 17.9762 15.6562 17.1465V11.8965C15.6562 11.0668 16.3266 10.3965 17.1562 10.3965H17.9062Z" fill="#067A6F"/>
</g>
<defs>
<clipPath id="clip0_945_2631">
<rect width="24" height="24" fill="white" transform="translate(0.65625 0.646484)"/>
</clipPath>
</defs>
</svg>
